<?xml version="1.0" encoding="UTF-8" standalone="no"?>
<svg
   xmlns:dc="http://purl.org/dc/elements/1.1/"
   xmlns:cc="http://creativecommons.org/ns#"
   xmlns:rdf="http://www.w3.org/1999/02/22-rdf-syntax-ns#"
   xmlns:svg="http://www.w3.org/2000/svg"
   xmlns="http://www.w3.org/2000/svg"
   viewBox="0 0 192.2 133.92"
   height="133.92"
   width="192.2"
   xml:space="preserve"
   id="svg2"
   version="1.1"><metadata
     id="metadata8"><rdf:RDF><cc:Work
         rdf:about=""><dc:format>image/svg+xml</dc:format><dc:type
           rdf:resource="http://purl.org/dc/dcmitype/StillImage" /></cc:Work></rdf:RDF></metadata><defs
     id="defs6"><clipPath
       id="clipPath40"
       clipPathUnits="userSpaceOnUse"><path
         style="clip-rule:evenodd"
         id="path38"
         d="M 379.219,195.961 C 268.836,157.672 149.988,152.133 125.148,153.238 207.953,84.1953 355.48,-46.1094 598.684,28.2852 554.27,40.3555 449.504,80.7383 379.219,195.961" /></clipPath><clipPath
       id="clipPath46"
       clipPathUnits="userSpaceOnUse"><path
         id="path44"
         d="M 0,0 H 2007.13 V 1532.03 H 0 Z" /></clipPath></defs><g
     transform="matrix(1.3333333,0,0,-1.3333333,0,133.92)"
     id="g10"><g
       transform="scale(0.1)"
       id="g12"><path
         id="path14"
         style="fill:#099cec;fill-opacity:1;fill-rule:evenodd;stroke:none"
         d="M 437.684,652.598 H 288.855 V 517.301 h 148.829 v 135.297" /><path
         id="path16"
         style="fill:#099cec;fill-opacity:1;fill-rule:evenodd;stroke:none"
         d="M 261.801,652.598 H 112.973 V 517.301 h 148.828 v 135.297" /><path
         id="path18"
         style="fill:#099cec;fill-opacity:1;fill-rule:evenodd;stroke:none"
         d="M 613.566,652.598 H 464.746 V 517.301 h 148.82 v 135.297" /><path
         id="path20"
         style="fill:#099cec;fill-opacity:1;fill-rule:evenodd;stroke:none"
         d="M 789.453,652.598 H 640.629 V 517.301 h 148.824 v 135.297" /><path
         id="path22"
         style="fill:#099cec;fill-opacity:1;fill-rule:evenodd;stroke:none"
         d="M 965.34,652.598 H 816.512 V 517.301 H 965.34 v 135.297" /><path
         id="path24"
         style="fill:#099cec;fill-opacity:1;fill-rule:evenodd;stroke:none"
         d="M 437.684,814.957 H 288.855 V 679.656 h 148.829 v 135.301" /><path
         id="path26"
         style="fill:#099cec;fill-opacity:1;fill-rule:evenodd;stroke:none"
         d="M 613.566,814.957 H 464.746 V 679.656 h 148.82 v 135.301" /><path
         id="path28"
         style="fill:#099cec;fill-opacity:1;fill-rule:evenodd;stroke:none"
         d="M 789.453,814.957 H 640.629 V 679.656 h 148.824 v 135.301" /><path
         id="path30"
         style="fill:#099cec;fill-opacity:1;fill-rule:evenodd;stroke:none"
         d="M 789.453,977.309 H 640.629 V 842.012 h 148.824 v 135.297" /><path
         id="path32"
         style="fill:#099cec;fill-opacity:1;fill-rule:evenodd;stroke:none"
         d="m 1408.62,610.828 c -30.55,20.559 -110.8,29.34 -169.15,13.621 -3.13,58.125 -33.11,107.106 -87.94,149.828 l -20.29,13.618 -13.54,-20.43 c -26.58,-40.356 -37.78,-94.125 -33.81,-143.016 3.12,-30.113 13.6,-63.972 33.81,-88.531 -15.48,-12.035 -63.63,-35.293 -128.52,-34.055 H 21.8047 C 4.60156,399.711 34.0625,11.5273 481.809,11.5273 c 332.41,0 605.541,149.4927 730.601,463.0977 41.15,-0.676 149.79,-7.375 202.95,95.348 1.29,1.722 13.53,27.234 13.53,27.234 l -20.27,13.621" /><g
         id="g34"><g
           clip-path="url(#clipPath40)"
           id="g36"><g
             clip-path="url(#clipPath46)"
             id="g42"><path
               id="path48"
               style="fill:#ffffff;fill-opacity:1;fill-rule:nonzero;stroke:none"
               d="M 57.5,0 H 666.336 V 263.609 H 57.5 Z" /></g></g></g><path
         id="path50"
         style="fill:#026fb6;fill-opacity:1;fill-rule:evenodd;stroke:none"
         d="m 366.891,219.801 c -53.11,-30.313 -114.664,-47.336 -179.95,-47.336 -33.082,0 -65.125,4.394 -95.6129,12.637 19.3049,-32.45 19.3049,-32.45 19.3049,-32.45 24.687,-4.875 50.191,-7.433 76.308,-7.433 70.356,0 135.977,18.39 193.141,50.742 -4.734,7.832 -9.137,15.664 -13.191,23.84" /><path
         id="path52"
         style="fill:#ffffff;fill-opacity:1;fill-rule:evenodd;stroke:none"
         d="m 469.844,237.457 c 25.976,0 47.035,21.199 47.035,47.352 0,26.152 -21.059,47.355 -47.035,47.355 -25.985,0 -47.043,-21.203 -47.043,-47.355 0,-26.153 21.058,-47.352 47.043,-47.352" /><path
         id="path54"
         style="fill:#4d5c64;fill-opacity:1;fill-rule:nonzero;stroke:none"
         d="m 476.922,298.109 c 0,4.348 2.144,8.039 5.285,10.528 -3.687,1.914 -7.805,3.097 -12.234,3.097 -14.84,0 -26.879,-12.121 -26.879,-27.062 0,-14.942 12.039,-27.059 26.879,-27.059 14.843,0 26.882,12.117 26.882,27.059 l -0.156,1.555 c -1.894,-1.016 -3.957,-1.731 -6.25,-1.731 -7.472,0 -13.527,6.094 -13.527,13.613" /><path
         id="path56"
         style="fill:#f2f2f2;fill-opacity:1;fill-rule:nonzero;stroke:none"
         d="m 1404.61,613.305 c -20.91,11.851 -58.97,19.191 -98.27,19.191 -22.92,0 -46.26,-2.496 -66.87,-8.047 -0.06,1.227 -0.14,2.449 -0.23,3.668 18.57,4.906 39.89,7.102 61.17,7.102 42.27,0 84.35,-8.664 104.2,-21.914" /><path
         id="path58"
         style="fill:#f2f2f2;fill-opacity:1;fill-rule:nonzero;stroke:none"
         d="m 549.133,15.6055 c 16.058,3.289 32.57,7.4843 49.551,12.6797 -20.801,5.6562 -54.848,17.5195 -92.387,40.3789 C 815.543,76.1914 1042,234.918 1223.01,609.559 l 12.42,17.504 c 1.25,0.363 2.52,0.714 3.81,1.054 0.09,-1.219 0.17,-2.441 0.23,-3.668 20.61,5.551 43.95,8.047 66.87,8.047 39.3,0 77.36,-7.34 98.27,-19.191 0.03,-0.024 0.07,-0.047 0.11,-0.075 l 20.43,-13.851 -10.29,-21.781 c -46.92,-95.106 -148.81,-102.25 -196.5,-102.25 -3.88,0 -7.4,0.047 -10.5,0.097 C 1090.94,185.902 848.039,36.5664 549.133,15.6055" /><path
         id="path60"
         style="fill:#0994e0;fill-opacity:1;fill-rule:nonzero;stroke:none"
         d="m 549.133,15.6055 c 16.058,3.289 32.57,7.4843 49.551,12.6797 -20.801,5.6562 -54.848,17.5195 -92.387,40.3789 C 815.543,76.1914 1042,234.918 1223.01,609.559 l 12.42,17.504 c 1.25,0.363 2.52,0.714 3.81,1.054 0.09,-1.219 0.17,-2.441 0.23,-3.668 20.61,5.551 43.95,8.047 66.87,8.047 39.3,0 77.36,-7.34 98.27,-19.191 0.03,-0.024 0.07,-0.047 0.11,-0.075 l 20.43,-13.851 -10.29,-21.781 c -46.92,-95.106 -148.81,-102.25 -196.5,-102.25 -3.88,0 -7.4,0.047 -10.5,0.097 C 1090.94,185.902 848.039,36.5664 549.133,15.6055" /><path
         id="path62"
         style="fill:#f2f2f2;fill-opacity:1;fill-rule:nonzero;stroke:none"
         d="M 315.418,31.6328 C 223.297,55.3945 157.789,99.8281 111.469,152.488 c 4.676,-0.914 9.379,-1.742 14.113,-2.488 41.402,-47.02 97.754,-87.2617 173.824,-112.0508 5.242,-2.1875 10.586,-4.3008 16.012,-6.3164" /><path
         id="path64"
         style="fill:#f2f2f2;fill-opacity:1;fill-rule:nonzero;stroke:none"
         d="M 299.406,37.9492 C 223.336,62.7383 166.984,102.98 125.582,150 c 1.398,-0.219 2.805,-0.434 4.207,-0.637 40.598,-33.933 96.02,-80.6638 169.617,-111.4138" /><path
         id="path66"
         style="fill:#0994e0;fill-opacity:1;fill-rule:nonzero;stroke:none"
         d="M 299.406,37.9492 C 223.336,62.7383 166.984,102.98 125.582,150 c 1.398,-0.219 2.805,-0.434 4.207,-0.637 40.598,-33.933 96.02,-80.6638 169.617,-111.4138" /><path
         id="path68"
         style="fill:#f2f2f2;fill-opacity:1;fill-rule:nonzero;stroke:none"
         d="M 109.145,155.152 C 7.61328,272.813 0.0859375,430.145 4.22656,490.859 H 20.2695 c -7.1562,-62.742 1.7188,-197.289 79.3789,-307.902 -2.7851,0.684 -5.5586,1.398 -8.3203,2.145 11.0859,-18.637 15.8089,-26.571 17.8169,-29.95" /><path
         id="path70"
         style="fill:#f2f2f2;fill-opacity:1;fill-rule:nonzero;stroke:none"
         d="m 179.387,172.543 c -27.426,0.555 -54.106,4.133 -79.7386,10.414 C 21.9883,293.57 13.1133,428.117 20.2695,490.859 H 58.3477 C 71.1523,360.195 101.512,248.266 179.387,172.543" /><path
         id="path72"
         style="fill:#0994e0;fill-opacity:1;fill-rule:nonzero;stroke:none"
         d="m 179.387,172.543 c -27.426,0.555 -54.106,4.133 -79.7386,10.414 C 21.9883,293.57 13.1133,428.117 20.2695,490.859 H 58.3477 C 71.1523,360.195 101.512,248.266 179.387,172.543" /><path
         id="path74"
         style="fill:#f2f2f2;fill-opacity:1;fill-rule:nonzero;stroke:none"
         d="m 474.555,13.0313 c -60.34,0 -113.063,6.7148 -159.137,18.6015 -5.426,2.0156 -10.77,4.1289 -16.012,6.3164 -73.597,30.75 -129.019,77.4808 -169.617,111.4138 18.656,-2.73 37.734,-4.144 57.152,-4.144 8.02,0 15.969,0.238 23.86,0.711 66.324,-48.8558 160.355,-76.9339 294.023,-77.3011 0.492,0.0117 0.981,0.0234 1.473,0.0352 37.539,-22.8594 71.586,-34.7227 92.387,-40.3789 -16.981,-5.1954 -33.493,-9.3907 -49.551,-12.6797 -24.496,-1.7188 -49.367,-2.5742 -74.578,-2.5742" /><path
         id="path76"
         style="fill:#f2f2f2;fill-opacity:1;fill-rule:nonzero;stroke:none"
         d="m 474.555,13.0313 c -60.34,0 -113.063,6.7148 -159.137,18.6015 -5.426,2.0156 -10.77,4.1289 -16.012,6.3164 -73.597,30.75 -129.019,77.4808 -169.617,111.4138 18.656,-2.73 37.734,-4.144 57.152,-4.144 8.02,0 15.969,0.238 23.86,0.711 66.324,-48.8558 160.355,-76.9339 294.023,-77.3011 0.492,0.0117 0.981,0.0234 1.473,0.0352 37.539,-22.8594 71.586,-34.7227 92.387,-40.3789 -16.981,-5.1954 -33.493,-9.3907 -49.551,-12.6797 -24.496,-1.7188 -49.367,-2.5742 -74.578,-2.5742" /><path
         id="path78"
         style="fill:#f2f2f2;fill-opacity:1;fill-rule:nonzero;stroke:none"
         d="m 186.941,145.219 c -19.418,0 -38.496,1.414 -57.152,4.144 -1.402,0.203 -2.809,0.418 -4.207,0.637 -4.734,0.746 -9.437,1.574 -14.113,2.488 -0.785,0.891 -1.555,1.77 -2.324,2.664 -2.008,3.379 -6.731,11.313 -17.8169,29.95 2.7617,-0.747 5.5352,-1.461 8.3203,-2.145 25.6326,-6.281 52.3126,-9.859 79.7386,-10.414 9.707,-9.441 20.172,-18.332 31.414,-26.613 -7.891,-0.473 -15.84,-0.711 -23.86,-0.711" /><path
         id="path80"
         style="fill:#0269ad;fill-opacity:1;fill-rule:nonzero;stroke:none"
         d="m 186.941,145.219 c -19.418,0 -38.496,1.414 -57.152,4.144 -1.402,0.203 -2.809,0.418 -4.207,0.637 -4.734,0.746 -9.437,1.574 -14.113,2.488 -0.785,0.891 -1.555,1.77 -2.324,2.664 -2.008,3.379 -6.731,11.313 -17.8169,29.95 2.7617,-0.747 5.5352,-1.461 8.3203,-2.145 25.6326,-6.281 52.3126,-9.859 79.7386,-10.414 9.707,-9.441 20.172,-18.332 31.414,-26.613 -7.891,-0.473 -15.84,-0.711 -23.86,-0.711" /><path
         id="path82"
         style="fill:#066da5;fill-opacity:1;fill-rule:nonzero;stroke:none"
         d="m 140.031,544.359 h 13.532 v 81.184 h -13.532 v -81.184" /><path
         id="path84"
         style="fill:#066da5;fill-opacity:1;fill-rule:nonzero;stroke:none"
         d="m 180.625,544.359 h 13.523 v 81.184 h -13.523 v -81.184" /><path
         id="path86"
         style="fill:#066da5;fill-opacity:1;fill-rule:nonzero;stroke:none"
         d="m 221.211,544.359 h 13.527 v 81.184 h -13.527 v -81.184" /><path
         id="path88"
         style="fill:#066da5;fill-opacity:1;fill-rule:nonzero;stroke:none"
         d="m 315.918,544.359 h 13.527 v 81.184 h -13.527 v -81.184" /><path
         id="path90"
         style="fill:#066da5;fill-opacity:1;fill-rule:nonzero;stroke:none"
         d="m 356.508,544.359 h 13.531 v 81.184 h -13.531 v -81.184" /><path
         id="path92"
         style="fill:#066da5;fill-opacity:1;fill-rule:nonzero;stroke:none"
         d="m 397.098,544.359 h 13.527 v 81.184 h -13.527 v -81.184" /><path
         id="path94"
         style="fill:#066da5;fill-opacity:1;fill-rule:nonzero;stroke:none"
         d="m 491.805,544.359 h 13.527 v 81.184 h -13.527 v -81.184" /><path
         id="path96"
         style="fill:#066da5;fill-opacity:1;fill-rule:nonzero;stroke:none"
         d="m 532.391,544.359 h 13.531 v 81.184 h -13.531 v -81.184" /><path
         id="path98"
         style="fill:#066da5;fill-opacity:1;fill-rule:nonzero;stroke:none"
         d="m 572.98,544.359 h 13.532 v 81.184 H 572.98 v -81.184" /><path
         id="path100"
         style="fill:#066da5;fill-opacity:1;fill-rule:nonzero;stroke:none"
         d="m 667.684,544.359 h 13.535 v 81.184 h -13.535 v -81.184" /><path
         id="path102"
         style="fill:#066da5;fill-opacity:1;fill-rule:nonzero;stroke:none"
         d="m 708.281,544.359 h 13.524 v 81.184 h -13.524 v -81.184" /><path
         id="path104"
         style="fill:#066da5;fill-opacity:1;fill-rule:nonzero;stroke:none"
         d="m 748.867,544.359 h 13.535 v 81.184 h -13.535 v -81.184" /><path
         id="path106"
         style="fill:#066da5;fill-opacity:1;fill-rule:nonzero;stroke:none"
         d="m 843.574,544.359 h 13.535 v 81.184 h -13.535 v -81.184" /><path
         id="path108"
         style="fill:#066da5;fill-opacity:1;fill-rule:nonzero;stroke:none"
         d="m 884.168,544.359 h 13.527 v 81.184 h -13.527 v -81.184" /><path
         id="path110"
         style="fill:#066da5;fill-opacity:1;fill-rule:nonzero;stroke:none"
         d="m 924.754,544.359 h 13.527 v 81.184 h -13.527 v -81.184" /><path
         id="path112"
         style="fill:#066da5;fill-opacity:1;fill-rule:nonzero;stroke:none"
         d="m 356.508,706.719 h 13.531 v 81.176 h -13.531 v -81.176" /><path
         id="path114"
         style="fill:#066da5;fill-opacity:1;fill-rule:nonzero;stroke:none"
         d="m 397.098,706.719 h 13.527 v 81.176 h -13.527 v -81.176" /><path
         id="path116"
         style="fill:#066da5;fill-opacity:1;fill-rule:nonzero;stroke:none"
         d="m 491.805,706.719 h 13.527 v 81.176 h -13.527 v -81.176" /><path
         id="path118"
         style="fill:#066da5;fill-opacity:1;fill-rule:nonzero;stroke:none"
         d="m 532.391,706.719 h 13.531 v 81.176 h -13.531 v -81.176" /><path
         id="path120"
         style="fill:#066da5;fill-opacity:1;fill-rule:nonzero;stroke:none"
         d="m 572.98,706.719 h 13.532 v 81.176 H 572.98 v -81.176" /><path
         id="path122"
         style="fill:#066da5;fill-opacity:1;fill-rule:nonzero;stroke:none"
         d="m 667.684,706.719 h 13.535 v 81.176 h -13.535 v -81.176" /><path
         id="path124"
         style="fill:#066da5;fill-opacity:1;fill-rule:nonzero;stroke:none"
         d="m 708.281,706.719 h 13.524 v 81.176 h -13.524 v -81.176" /><path
         id="path126"
         style="fill:#066da5;fill-opacity:1;fill-rule:nonzero;stroke:none"
         d="m 748.867,706.719 h 13.535 v 81.176 h -13.535 v -81.176" /><path
         id="path128"
         style="fill:#066da5;fill-opacity:1;fill-rule:nonzero;stroke:none"
         d="m 708.281,869.07 h 13.524 v 81.18 h -13.524 v -81.18" /><path
         id="path130"
         style="fill:#066da5;fill-opacity:1;fill-rule:nonzero;stroke:none"
         d="m 667.684,869.07 h 13.535 v 81.18 h -13.535 v -81.18" /><path
         id="path132"
         style="fill:#066da5;fill-opacity:1;fill-rule:nonzero;stroke:none"
         d="m 748.867,869.07 h 13.535 v 81.18 h -13.535 v -81.18" /><path
         id="path134"
         style="fill:#066da5;fill-opacity:1;fill-rule:nonzero;stroke:none"
         d="m 315.918,706.719 h 13.527 v 81.176 h -13.527 v -81.176" /><path
         id="path136"
         style="fill:#066da5;fill-opacity:1;fill-rule:nonzero;stroke:none"
         d="m 1405.21,591.25 c -1.67,-3.414 -3.09,-6.289 -4.19,-8.453 -0.59,-1.164 -1.07,-2.106 -2.38,-4.438 -20.09,-38.808 -49.59,-63.093 -87,-76.25 -29.61,-10.41 -56.46,-12.738 -96.69,-11.91 -0.4,0.012 -2.92,0.067 -7.03,0.145 l -9.32,0.148 -3.46,-8.695 C 1076.78,184.984 818.309,27.25 477.094,27.25 282.035,27.25 154.75,101.117 84.5313,227.152 57.4336,275.785 40.2031,330.355 32.1289,386.215 c -5.6055,38.746 -6.3633,76.34 -3.2734,104.129 h 57.0547 v -0.102 h 175.8908 27.054 148.829 27.062 148.828 27.055 148.824 27.059 175.89 v 0.262 c 53.588,0.605 103.698,17.187 128.848,36.726 l 11.09,8.614 -8.93,10.859 c -16.76,20.356 -27.56,50.184 -30.79,81.262 -3.84,47.422 7.65,97.648 31.65,134.07 l 6,9.067 8.63,-5.793 c 52.52,-41.036 79.49,-86.614 82.35,-139.504 l 0.9,-16.75 16.1,4.336 c 52.69,14.187 129.82,7.257 158.13,-11.789 l 10.45,-7.028 c -0.47,-0.988 -0.95,-1.969 -1.62,-3.324 z M 112.973,652.598 H 261.801 V 517.582 H 112.973 Z m 175.882,0 H 437.684 V 517.582 H 288.855 Z m 0,162.359 H 437.684 V 679.656 H 288.855 Z M 464.746,652.598 H 613.574 V 517.582 H 464.746 Z m 0,162.359 H 613.574 V 679.656 H 464.746 Z M 640.629,652.598 H 789.453 V 517.582 H 640.629 Z m 0,162.359 H 789.453 V 679.656 H 640.629 Z m 0,162.352 H 789.453 V 842.016 H 640.629 Z M 816.512,652.598 H 965.34 V 517.582 H 816.512 Z m 594.898,-28.344 c -32.5,21.875 -106.61,30.117 -164.66,18.992 -7.49,54.731 -38.19,102.231 -92.03,144.192 l -31.96,21.445 -21.03,-31.77 c -27.51,-41.758 -40.39,-98.074 -36.05,-151.675 3.2,-30.735 12.7,-60.387 27.94,-83.872 -23.03,-12.832 -60.82,-23.339 -101.218,-23.875 v 161.965 h -175.89 v 135.301 27.059 162.354 H 613.574 V 842.016 H 464.746 437.684 261.801 V 679.656 H 85.9102 V 517.582 H 17.082 5.65234 L 3.74219,506.238 C -1.52344,474.949 -1.44531,429.309 5.35156,382.289 13.8789,323.289 32.1133,265.543 60.9297,213.824 135.977,79.125 272.316,0 477.094,0 c 348.441,0 615.356,160.883 739.626,462.922 41.97,-0.754 70.99,1.922 103.85,13.469 43.52,15.304 78.42,43.964 101.82,88.902 1.31,2.168 3.22,6.012 7.3,14.332 1.47,3.012 3.03,6.234 4.6,9.457 0.53,1.129 1.04,2.172 2.07,4.301 l 5.11,10.676 -30.06,20.195" /><path
         id="path138"
         style="fill:#066da5;fill-opacity:1;fill-rule:nonzero;stroke:none"
         d="m 921.172,55.1797 h 2.156 c 2.52,0 4.563,0.8398 4.563,2.8828 0,1.7969 -1.321,2.9961 -4.2,2.9961 -1.203,0 -2.043,-0.1172 -2.519,-0.2344 z m -0.117,-11.1524 h -4.563 v 19.668 c 1.797,0.3633 4.317,0.6055 7.559,0.6055 3.722,0 5.39,-0.6055 6.836,-1.4453 1.074,-0.8282 1.914,-2.3907 1.914,-4.3164 0,-2.1563 -1.68,-3.836 -4.071,-4.5508 v -0.2422 c 1.915,-0.7227 2.997,-2.1602 3.594,-4.7969 0.606,-2.9961 0.957,-4.1992 1.446,-4.9219 h -4.922 c -0.598,0.7227 -0.957,2.5196 -1.563,4.8047 -0.351,2.1602 -1.555,3.1172 -4.074,3.1172 h -2.156 z m -12.121,10.3243 c 0,-8.7618 6.484,-15.7149 15.351,-15.7149 8.645,0 14.992,6.9531 14.992,15.586 0,8.7617 -6.347,15.832 -15.109,15.832 -8.75,0 -15.234,-7.0703 -15.234,-15.7031 z m 35.382,0 c 0,-11.1641 -8.75,-19.9141 -20.148,-19.9141 -11.27,0 -20.262,8.75 -20.262,19.9141 0,10.9062 8.992,19.6679 20.262,19.6679 11.398,0 20.148,-8.7617 20.148,-19.6679" /></g></g></svg>